<?xml version="1.0" encoding="utf-8"?>
<!-- Generator: Adobe Illustrator 22.0.1, SVG Export Plug-In . SVG Version: 6.00 Build 0)  -->
<svg version="1.1" id="Layer_1" xmlns="http://www.w3.org/2000/svg" xmlns:xlink="http://www.w3.org/1999/xlink" x="0px" y="0px"
	 viewBox="0 0 1000 1000" style="enable-background:new 0 0 1000 1000;" xml:space="preserve">
<style type="text/css">
	.st0{fill:#FFFFFF;}
	.st1{fill:#235382;}
</style>
<g>
	<g>
		<path class="st0" d="M434.7,463.7c-10.4,0-18.6,8.3-18.6,18.6s8.3,18.7,18.6,18.7c4.4,0,8.6-1.6,11.8-4.2c0.4-0.4,0.7-0.8,0.7-1.6
			c0-1.3,0-3.7,0-4.6c0-1.3-0.7-0.8-1.2-0.2c-2.5,3.6-6.6,6.1-11.2,6.1c-7.7,0-13.9-6.6-13.9-14.3s6.2-14.1,13.9-14.1
			c4.4,0,8.2,2.2,10.8,5.4c1.2,1.5,1.6,1,1.6-0.1c0-0.5,0-2.8,0-4.1c0-0.7-0.3-1.2-0.6-1.5C443.3,465.2,439.2,463.7,434.7,463.7z"/>
		<g>
			<path class="st0" d="M470.2,465.6c8.9,0,16.1,6.8,16.8,15.4c0-0.4,0.1-0.9,0.1-1.3c0-9.2-7.5-16.8-16.8-16.8
				c-9.2,0-16.8,7.5-16.8,16.8c0,0.5,0,0.9,0.1,1.3C454.2,472.4,461.4,465.6,470.2,465.6z"/>
			<path class="st1" d="M470.2,499.1c-8.8,0-16-6.8-16.7-15.4c0,0.4-0.1,0.9-0.1,1.3c0,9.2,7.5,16.8,16.8,16.8
				c9.3,0,16.8-7.5,16.8-16.8c0-0.5,0-0.9-0.1-1.3C486.2,492.3,479,499.1,470.2,499.1z"/>
			<path class="st0" d="M453.5,481"/>
			<path class="st0" d="M453.5,483.7"/>
			<path class="st0" d="M486.9,481"/>
			<path class="st0" d="M486.9,483.7"/>
		</g>
		<path class="st0" d="M497.4,464.6h-0.1c-1.3,0-2.3,1-2.3,2.3v30.9c0,1.3,1,2.3,2.3,2.3h0.1c1.3,0,2.3-1,2.3-2.3v-30.9
			C499.7,465.6,498.7,464.6,497.4,464.6z"/>
		<path class="st0" d="M522,463.7c-2.9,0-7,0.7-9.5,3.6c-0.2,0.2-0.6,0.1-0.6-0.2c0-0.1,0,0,0-0.2c0-1.4-1.1-2.2-2.2-2.2h-0.3
			c-1.3,0-2.3,1-2.3,2.2l0.1,30.9c0,1.3,1,2.3,2.3,2.3h0.2c1.3,0,2.3-1,2.3-2.3c0,0,0-19.5,0-20.4c0-6.1,3.3-9.2,10-9.2
			c5.1,0,10.7,3.2,10.7,10.5v19.1c0,1.3,1,2.3,2.3,2.3h0.1c1.3,0,2.3-1,2.3-2.3v-19.4C537.4,466.9,528.7,463.7,522,463.7z"/>
		<path class="st0" d="M553.4,451.4c1-1.2,2.5-1.9,4.3-1.9c0.7,0,1.9,0.4,3.1,1.1c1.3,0.8,2.9,0.3,3.4-1c0.6-1.3-0.1-2.9-1.9-3.5
			c-1.3-0.5-3.1-1.1-4.9-1.1c-1.6,0-3,0.3-3.8,0.7c-1.9,0.8-3.3,1.7-4.5,3.5c-1.4,2.1-1.9,4.7-1.9,5.9c0,0,0,8.2,0,8.7
			s0,0.7-0.5,0.7c-0.2,0-0.4,0-0.4,0c-1.3,0-2.3,1-2.3,2.3v0.1c0,1.3,1,2.3,2.3,2.3c0,0,0.1,0,0.2,0c0.4,0,0.7,0.1,0.7,0.9
			c0,0.7,0,27.5,0,27.5c0,1.3,1,2.3,2.3,2.3h0.2c1.3,0,2.3-1,2.3-2.3c0,0,0-27,0-27.6c0-0.6,0.2-0.8,0.7-0.8c0.4,0,3.6,0,3.6,0
			c1.3,0,2.3-1,2.3-2.3v-0.1c0-1.3-1-2.3-2.3-2.3c0,0-3.1,0-3.6,0c-0.4,0-0.7-0.1-0.7-0.7c0-0.5,0-8.7,0-8.7
			C552.1,454.2,552.5,452.4,553.4,451.4z"/>
		<path class="st0" d="M589.4,464.6h-0.1c-1.3,0-2.3,1-2.3,2.3v19c0,7.3-4.8,10.7-10,10.7c-5.1,0-10-3.3-10-10.7v-19
			c0-1.3-1-2.3-2.3-2.3h-0.2c-1.3,0-2.3,1-2.3,2.3v19.3c0,11.5,8.1,14.8,14.8,14.8s14.7-3.3,14.7-14.8v-19.3
			C591.7,465.6,590.7,464.6,589.4,464.6z"/>
		<path class="st0" d="M601.6,446h-0.1c-1.3,0-2.3,1-2.3,2.3v49.4c0,1.3,1,2.3,2.3,2.3h0.1c1.3,0,2.3-1,2.3-2.3v-49.4
			C603.9,447.1,602.8,446,601.6,446z"/>
	</g>
</g>
</svg>
