<?xml version="1.0" encoding="utf-8"?>
<!-- Generator: Adobe Illustrator 22.0.1, SVG Export Plug-In . SVG Version: 6.00 Build 0)  -->
<svg version="1.1" id="Layer_1" xmlns="http://www.w3.org/2000/svg" xmlns:xlink="http://www.w3.org/1999/xlink" x="0px" y="0px"
	 viewBox="0 0 200.3 83.3" style="enable-background:new 0 0 200.3 83.3;" xml:space="preserve">
<style type="text/css">
	.st0{fill:#FFFFFF;}
	.st1{fill:#235382;}
</style>
<g>
	<path class="st0" d="M26,25.7C15.7,25.7,7.4,34,7.4,44.3S15.7,63,26,63c4.4,0,8.6-1.6,11.8-4.2c0.4-0.4,0.7-0.8,0.7-1.6
		c0-1.3,0-3.7,0-4.6c0-1.3-0.7-0.8-1.2-0.2c-2.5,3.6-6.6,6.1-11.2,6.1c-7.7,0-13.9-6.6-13.9-14.3S18.3,30.1,26,30.1
		c4.4,0,8.2,2.2,10.8,5.4c1.2,1.5,1.6,1,1.6-0.1c0-0.5,0-2.8,0-4.1c0-0.7-0.3-1.2-0.6-1.5C34.6,27.2,30.5,25.7,26,25.7z"/>
	<g>
		<path class="st0" d="M61.5,27.6c8.9,0,16.1,6.8,16.8,15.4c0-0.4,0.1-0.9,0.1-1.3c0-9.2-7.5-16.8-16.8-16.8
			c-9.2,0-16.8,7.5-16.8,16.8c0,0.5,0,0.9,0.1,1.3C45.5,34.4,52.7,27.6,61.5,27.6z"/>
		<path class="st1" d="M61.5,61.1c-8.8,0-16-6.8-16.7-15.4c0,0.4-0.1,0.9-0.1,1.3c0,9.2,7.5,16.8,16.8,16.8
			c9.3,0,16.8-7.5,16.8-16.8c0-0.5,0-0.9-0.1-1.3C77.6,54.3,70.3,61.1,61.5,61.1z"/>
		<path class="st0" d="M44.8,43"/>
		<path class="st0" d="M44.8,45.7"/>
		<path class="st0" d="M78.2,43"/>
		<path class="st0" d="M78.2,45.7"/>
	</g>
	<path class="st0" d="M88.7,26.6h-0.1c-1.3,0-2.3,1-2.3,2.3v30.9c0,1.3,1,2.3,2.3,2.3h0.1c1.3,0,2.3-1,2.3-2.3V28.9
		C91,27.6,90,26.6,88.7,26.6z"/>
	<path class="st0" d="M113.3,25.7c-2.9,0-7,0.7-9.5,3.6c-0.2,0.2-0.6,0.1-0.6-0.2c0-0.1,0,0,0-0.2c0-1.4-1.1-2.2-2.2-2.2h-0.3
		c-1.3,0-2.3,1-2.3,2.2l0.1,30.9c0,1.3,1,2.3,2.3,2.3h0.2c1.3,0,2.3-1,2.3-2.3c0,0,0-19.5,0-20.4c0-6.1,3.3-9.2,10-9.2
		c5.1,0,10.7,3.2,10.7,10.5v19.1c0,1.3,1,2.3,2.3,2.3h0.1c1.3,0,2.3-1,2.3-2.3V40.4C128.7,28.9,120,25.7,113.3,25.7z"/>
	<path class="st0" d="M144.7,13.4c1-1.2,2.5-1.9,4.3-1.9c0.7,0,1.9,0.4,3.1,1.1c1.3,0.8,2.9,0.3,3.4-1c0.6-1.3-0.1-2.9-1.9-3.5
		c-1.3-0.5-3.1-1.1-4.9-1.1c-1.6,0-3,0.3-3.8,0.7c-1.9,0.8-3.3,1.7-4.5,3.5c-1.4,2.1-1.9,4.7-1.9,5.9c0,0,0,8.2,0,8.7s0,0.7-0.5,0.7
		c-0.2,0-0.4,0-0.4,0c-1.3,0-2.3,1-2.3,2.3V29c0,1.3,1,2.3,2.3,2.3c0,0,0.1,0,0.2,0c0.4,0,0.7,0.1,0.7,0.9c0,0.7,0,27.5,0,27.5
		c0,1.3,1,2.3,2.3,2.3h0.2c1.3,0,2.3-1,2.3-2.3c0,0,0-27,0-27.6c0-0.6,0.2-0.8,0.7-0.8c0.4,0,3.6,0,3.6,0c1.3,0,2.3-1,2.3-2.3v-0.1
		c0-1.3-1-2.3-2.3-2.3c0,0-3.1,0-3.6,0c-0.4,0-0.7-0.1-0.7-0.7c0-0.5,0-8.7,0-8.7C143.4,16.2,143.8,14.4,144.7,13.4z"/>
	<path class="st0" d="M180.8,26.6h-0.1c-1.3,0-2.3,1-2.3,2.3v19c0,7.3-4.8,10.7-10,10.7c-5.1,0-10-3.3-10-10.7v-19
		c0-1.3-1-2.3-2.3-2.3h-0.2c-1.3,0-2.3,1-2.3,2.3v19.3c0,11.5,8.1,14.8,14.8,14.8s14.7-3.3,14.7-14.8V28.9
		C183.1,27.6,182,26.6,180.8,26.6z"/>
	<path class="st0" d="M192.9,8h-0.1c-1.3,0-2.3,1-2.3,2.3v49.4c0,1.3,1,2.3,2.3,2.3h0.1c1.3,0,2.3-1,2.3-2.3V10.3
		C195.2,9.1,194.2,8,192.9,8z"/>
</g>
</svg>
